<?xml version="1.0" encoding="utf-8"?>
<!-- Generator: Adobe Illustrator 19.0.0, SVG Export Plug-In . SVG Version: 6.00 Build 0)  -->
<svg version="1.1" id="Layer_1" xmlns="http://www.w3.org/2000/svg" xmlns:xlink="http://www.w3.org/1999/xlink" x="0px" y="0px"
	 viewBox="0 0 195.7 65.2" style="enable-background:new 0 0 195.7 65.2;" xml:space="preserve">
<style type="text/css">
	.st0{fill:#595657;}
	.st1{fill:#007e44;}
	.st2{fill:#39b54a;}
</style>
<g id="XMLID_3_">
	<g id="Instance0_1_">
		<path id="_x3C_Path_x3E__22_" class="st0" d="M-381.9-436L-381.9-436C-382-436-382-436-381.9-436L-381.9-436L-381.9-436
			C-382-436-382-436-381.9-436L-381.9-436L-381.9-436L-381.9-436L-381.9-436C-382-436-382-436-381.9-436C-382-436-382-436-381.9-436
			l0,0.1l0,0c0,0,0,0,0,0h0c0,0,0,0,0,0l0,0L-381.9-436C-381.9-436-381.9-436-381.9-436C-381.9-436-381.9-436-381.9-436L-381.9-436
			L-381.9-436L-381.9-436L-381.9-436C-381.9-436-381.9-436-381.9-436L-381.9-436L-381.9-436L-381.9-436
			C-381.9-436-381.9-436-381.9-436z"/>
		<circle id="_x3C_Path_x3E__21_" class="st0" cx="-382" cy="-436.1" r="0"/>
	</g>
	<g id="Instance1_1_">
		<polygon id="_x3C_Path_x3E__20_" class="st0" points="-381.8,-436 -381.9,-436 -381.9,-436 -381.9,-435.9 -381.9,-435.9 
			-381.9,-435.9 -381.9,-435.9 -381.9,-435.9 -381.9,-435.9 -381.9,-435.9 -381.9,-435.9 -381.9,-435.9 -381.9,-435.9 
			-381.9,-435.9 -381.9,-435.9 -381.9,-435.9 -381.9,-435.9 -381.9,-435.9 -381.9,-435.9 -381.9,-435.9 -381.9,-435.9 
			-381.9,-435.9 -381.9,-435.9 -381.8,-435.9 -381.8,-435.9 -381.8,-435.9 -381.8,-435.9 -381.8,-435.9 -381.8,-436 		"/>
		<circle id="_x3C_Path_x3E__19_" class="st0" cx="-381.9" cy="-436" r="0"/>
	</g>
	<g id="Instance2_1_">
		<path id="_x3C_Path_x3E__18_" class="st0" d="M-381.7-436.1L-381.7-436.1C-381.8-436.1-381.8-436-381.7-436.1L-381.7-436.1
			L-381.7-436.1C-381.8-436-381.8-436-381.7-436.1L-381.7-436.1L-381.7-436.1L-381.7-436.1L-381.7-436.1
			C-381.8-436-381.8-436-381.7-436.1C-381.8-436-381.8-436-381.7-436.1l-0.1,0.1l0,0c0,0,0,0,0,0h0c0,0,0,0,0,0l0,0L-381.7-436.1
			C-381.7-436-381.7-436-381.7-436.1C-381.7-436-381.7-436-381.7-436.1L-381.7-436.1L-381.7-436.1L-381.7-436.1L-381.7-436.1
			C-381.7-436-381.7-436-381.7-436.1L-381.7-436.1L-381.7-436.1L-381.7-436.1C-381.7-436-381.7-436.1-381.7-436.1z"/>
		<circle id="_x3C_Path_x3E__17_" class="st0" cx="-381.8" cy="-436.1" r="0"/>
	</g>
</g>
<g>
	<path class="st1" d="M107.3,41.4c0.2-1.1,0.5-2.7,2.2-2.7c1.6,0,1.3,1.5,1.1,2.7L108.2,53h8l2.9-13.9c0.8-3.8,0.9-6.4-4.1-6.4
		c-2.7,0-5.4,1.1-7.1,3.8h-0.1l0.7-3.4H101L96.9,53h8L107.3,41.4z"/>
	<polygon class="st1" points="142.1,33.2 134.3,33.2 129.2,45.9 129.2,45.9 129.4,33.2 121.2,33.2 122.9,53 132.1,53 	"/>
	<polygon class="st1" points="164.3,24.6 156.3,24.6 150.5,53 158.5,53 	"/>
	<polygon class="st1" points="175,24.6 167,24.6 161.2,53 169.2,53 	"/>
	<path class="st1" d="M95.3,48.1h-7.6c-2.1-0.2-3.6-0.9-3.2-2.9H96l0.7-2.7c1.3-6.6,0.6-9.7-6.9-9.7c-7.9,0-11.8,3.4-13.1,10
		c-1.3,6.2,0.6,9.8,7.2,10.3h10.4L95.3,48.1z M88.5,37.2c2.1,0,1.9,2.4,1.6,3.8h-4.9C85.4,39.5,86.3,37.2,88.5,37.2z"/>
	<path class="st1" d="M191.7,48.1h-7.6c-2.1-0.2-3.6-0.9-3.2-2.9h11.6l0.7-2.7c1.3-6.6,0.6-9.7-6.9-9.7c-7.9,0-11.8,3.4-13.1,10
		c-1.3,6.2,0.6,9.8,7.2,10.3h10.4L191.7,48.1z M185,37.2c2.1,0,1.9,2.4,1.6,3.8h-4.9C181.9,39.5,182.8,37.2,185,37.2z"/>
	<path class="st1" d="M73.7,48.1h-7.6c-2.1-0.2-3.6-0.9-3.2-2.9h11.6l0.7-2.7c1.3-6.6,0.6-9.7-6.9-9.7c-7.9,0-11.8,3.4-13.1,10
		c-1.3,6.2,0.6,9.8,7.2,10.3h10.4L73.7,48.1z M67,37.2c2.1,0,1.9,2.4,1.6,3.8h-4.9C63.9,39.5,64.8,37.2,67,37.2z"/>
	<path class="st1" d="M58.1,33.8c0.3-0.2,0.6-0.5,1-0.7c-0.6-0.3-2-0.7-4.6-0.4c-5.3,0.6-6.7,4.2-6.7,4.2l0.8-3.8h-7.5l-4,19.8h8
		l1.6-7.4c0.6-2.9,3.3-5.2,5.9-5.2c0.4,0,0.9,0,1.3,0.1C54.6,37.6,56.1,35.4,58.1,33.8z"/>
	<path class="st2" d="M38.5,11.2l-2,1.8l-2.8,9.2l1.2-16.8l-0.7-1l-3.1-0.1l-2.4,14.9L28,2.6l-1.4-1l-3.2,2.6l-0.2,17.4L22,21.9
		L18.5,4.5L16.2,4l-2.3,3L15,29c0.5-0.4,1-0.8,1.5-1.1c3.5-2.3,7.9-3.6,12.6-3.6c5,0,7.5,0.4,10.1,1l2.4-11.7L38.5,11.2z M14.8,7
		l1.2-1.4L16,6l-1.2,1.4L14.8,7z M14.8,8.2l1.2-1.4l0,0.5l-1.2,1.4L14.8,8.2z M15,10.1l0-0.5l1.3-1.4l0.1,0.5L15,10.1z M15,11
		l1.3-1.4l0.1,0.6l-1.4,1.4L15,11z M15.1,12.5l1.4-1.4l0.1,0.6l-1.4,1.4L15.1,12.5z M15.2,14.2l1.5-1.4l0.1,0.7l-1.5,1.3L15.2,14.2z
		 M15.3,15.9l1.5-1.3l0.1,0.7l-1.6,1.3L15.3,15.9z M15.4,17.9l1.6-1.3l0.1,0.8l-1.6,1.2L15.4,17.9z M15.6,19.9l1.7-1.2l0.1,0.9
		l-1.7,1.2L15.6,19.9z M15.8,23.1l-0.1-0.9l1.8-1.1l0.1,0.9L15.8,23.1z M36.4,13.7l1.5-1.2l0,0.2l-1.5,1.2L36.4,13.7z M36.3,14.1
		l1.5-1.2l0,0.2l-1.5,1.1L36.3,14.1z M36.2,14.6l1.5-1.1l0,0.2l-1.5,1L36.2,14.6z M36,15.2l1.5-1l-0.1,0.3l-1.6,0.9L36,15.2z
		 M35.8,15.9l1.6-0.8l-0.1,0.3l-1.6,0.8L35.8,15.9z M35.6,16.7l1.6-0.7l-0.1,0.4L35.5,17L35.6,16.7z M35.3,17.5l1.6-0.4l-0.1,0.5
		l-1.6,0.3L35.3,17.5z M35.1,18.5l1.6-0.1L36.6,19l-1.7,0L35.1,18.5z M34.7,19.7l1.7,0.3l-0.1,0.7l-1.7-0.5L34.7,19.7z M34.3,21.2
		l1.7,0.9l-0.2,0.9l-1.7-1.2L34.3,21.2z M25.6,17.8l-0.9,0.4l0-0.7l0.9-0.4L25.6,17.8z M25.5,12.6l-0.8,0.5l0-0.6l0.8-0.5L25.5,12.6
		z M25.5,8.2l-0.8,0.6l0-0.6l0.8-0.6L25.5,8.2z M24.4,20.2l-0.9,0.4l0-0.8l0.9-0.4L24.4,20.2z M24.4,18.3l-0.8,0.4l0-0.7l0.8-0.4
		L24.4,18.3z M24.4,16.6L23.6,17l0-0.7l0.8-0.4L24.4,16.6z M24.4,14.9l-0.8,0.4l0-0.7l0.8-0.5L24.4,14.9z M24.4,13.3l-0.8,0.5l0-0.6
		l0.8-0.5L24.4,13.3z M24.4,11.8l-0.8,0.5l0-0.6l0.8-0.5L24.4,11.8z M24.4,10.4l-0.7,0.5l0-0.6l0.7-0.5L24.4,10.4z M24.4,9l-0.7,0.5
		l0-0.6l0.7-0.5L24.4,9z M24.4,7.7l-0.7,0.5l0-0.5l0.7-0.6L24.4,7.7z M24.4,6.4l-0.7,0.6l0-0.5l0.7-0.6L24.4,6.4z M24.4,5.2
		l-0.7,0.6l0-0.5l0.7-0.6L24.4,5.2z M24.7,4.4l0.7-0.6l0,0.5l-0.7,0.6L24.7,4.4z M25.4,5l0,0.5l-0.7,0.6l0-0.5L25.4,5z M24.7,6.9
		l0.7-0.6l0,0.5l-0.8,0.6V6.9z M30.9,20.2l-1.7-0.5l0.1-0.8l1.6,0.5L30.9,20.2z M31.2,18l-1.6-0.4l0.1-0.7l1.6,0.4L31.2,18z
		 M31.4,16l-1.5-0.4L30,15l1.5,0.3L31.4,16z M31.7,14.2l-1.5-0.3l0.1-0.6l1.5,0.3L31.7,14.2z M31.9,12.5l-1.4-0.2l0.1-0.6l1.4,0.2
		L31.9,12.5z M32,11l-1.4-0.2l0.1-0.5l1.3,0.2L32,11z M32.2,9.6l-1.3-0.1L31,9l1.3,0.1L32.2,9.6z M32.4,8.3l-1.3-0.1l0.1-0.5
		l1.3,0.1L32.4,8.3z M32.5,7.1L31.3,7l0.1-0.4l1.2,0.1L32.5,7.1z M32.6,6l-1.2,0l0.1-0.4l1.2,0L32.6,6z M25.5,9l0,0.6l-0.8,0.5
		l0-0.6L25.5,9z M24.7,11l0.8-0.5l0,0.6l-0.8,0.5L24.7,11z M24.7,14.1l0.8-0.5l0,0.7l-0.8,0.5L24.7,14.1z M25.6,15.2l0,0.7l-0.9,0.4
		l0-0.7L25.6,15.2z M24.7,20l0-0.8l0.9-0.4l0,0.8L24.7,20z"/>
	<path class="st2" d="M9.1,38.8c0.6-3,1.9-5.6,3.8-7.8l-7.1-9.9H1.5l0,2l7.5,16C9,39,9,38.9,9.1,38.8z M10.2,30.3l-0.8,0.8L9,30.5
		l0.8-0.8L10.2,30.3z M3.8,21.9l0.8-0.1l0.2,0.2L4,22.2L3.8,21.9z M4.2,22.6l0.8-0.1l0.2,0.3l-0.8,0.2L4.2,22.6z M4.7,23.4l0.8-0.2
		l0.2,0.3l-0.8,0.2L4.7,23.4z M5.3,24.3l0.8-0.2l0.2,0.3l-0.8,0.3L5.3,24.3z M5.8,25.3L6.7,25l0.2,0.4l-0.9,0.3L5.8,25.3z M6.5,26.3
		L7.4,26l0.3,0.4l-0.9,0.4L6.5,26.3z M7.2,27.6l0.9-0.5l0.3,0.4l-0.9,0.5L7.2,27.6z M8.1,28.9l0.9-0.6l0.3,0.5l-0.9,0.7L8.1,28.9z"
		/>
	<path class="st1" d="M38.8,27.1c-2.4-0.6-4.8-1-9.7-1c-8.4,0-16.5,4.4-18.3,13.1c-1,4.7,0.1,9.5,2.5,11.9c3.2,3.2,8.6,1.6,10.9,0.6
		c1.7-0.7,3.2-1.9,3.2-1.9L26.3,53h8.1l2.5-12.4H34c-0.4,1.4-1.1,2.7-2,3.7c-1.2,1.3-2.7,2.2-4.6,2.6c-0.7,0.2-1.4,0.2-2,0.2
		c-0.4,0-0.9,0-1.3-0.1c-0.4-0.1-0.7-0.1-1.1-0.2c-0.5-0.1-1-0.2-1.4-0.3c-0.1,0-0.1,0-0.2,0c-2.1-0.1-2.4,1.4-2.4,1.4
		s-0.9-2,1.1-4.4c-0.1-0.1-0.2-0.2-0.3-0.3c-0.2-0.3-0.3-0.6-0.3-1c0.2-1.1,0.5-2.1,0.9-3.1c0.7-1.8,3.3-6.6,10.3-6.6
		c2.8,0,5.4,0.7,6.7,1.6L38.8,27.1z"/>
	<path class="st2" d="M18.9,48C18.9,48,18.9,48,18.9,48C18.9,48,18.9,48,18.9,48z M33.4,34.9c0-0.1-0.1-0.2-0.2-0.2c0,0,0,0,0,0
		c-2.2-0.6-4.6-0.6-6.7,0c-1.2,0.3-2.2,0.9-3.1,1.7c-0.9,0.9-1.6,2-2.1,3.2c-0.4,0.9-0.7,1.9-0.8,2.9c0,0.2,0.2,0.3,0.3,0.3
		c0.1,0,0.1-0.1,0.2-0.1c0.3-0.2,0.6-0.3,0.9-0.4c0.5-0.2,1.1-0.4,1.6-0.6c0.5-0.2,1.1-0.4,1.6-0.6c0.6-0.3,1.2-0.7,1.8-1.1
		c1.5-1,2.8-2.3,4-3.7c0,0,0.1-0.1,0.1-0.1c0.1-0.2,0.4-0.2,0.5,0c0.2,0.2,0,0.4-0.1,0.6c-0.4,0.5-0.8,1-1.3,1.5
		c-1.6,1.7-3.3,3.2-5.4,4.1c-0.7,0.3-1.4,0.5-2.1,0.8c-0.6,0.3-1.2,0.6-1.8,1.1c-0.9,0.7-1.8,1.6-1.9,2.8c0,0.3,0,0.6,0,0.9
		c-0.1-0.4,0.2-1.3,0.4-1.6c0.6-0.8,1.4-0.9,2.3-0.8c0.9,0.2,1.8,0.4,2.7,0.5c1,0.2,2,0.1,3-0.1c1.5-0.4,3-1.1,4.1-2.3
		c1.1-1.2,1.7-2.6,2-4.2C33.6,38,33.6,36.5,33.4,34.9C33.4,35,33.4,34.9,33.4,34.9C33.4,34.9,33.4,34.9,33.4,34.9z"/>
	<polygon class="st1" points="151.9,33.2 143.9,33.2 139.9,53 147.9,53 	"/>
	<polygon class="st1" points="145.5,25.1 153.5,25.1 152.5,30.3 144.5,30.3 	"/>
</g>
<g>
	<path d="M48.7,58.7v0.5h-1.9v4.1h-0.6v-4.6H48.7z"/>
	<path d="M52.7,58.8c0.3,0,0.7-0.1,1.1-0.1c0.6,0,1,0.1,1.3,0.4c0.3,0.2,0.4,0.6,0.4,1c0,0.4-0.1,0.7-0.4,1
		c-0.3,0.3-0.8,0.5-1.4,0.5c-0.2,0-0.3,0-0.5,0v1.8h-0.6V58.8z M53.3,61c0.1,0,0.3,0,0.5,0c0.7,0,1.2-0.3,1.2-1
		c0-0.6-0.4-0.9-1.1-0.9c-0.3,0-0.5,0-0.6,0V61z"/>
	<path d="M59.8,58.7l0.9,2c0.1,0.3,0.2,0.5,0.3,0.8h0c0.1-0.2,0.2-0.5,0.3-0.8l0.7-1.9h0.6l-1,2.4c-0.3,0.6-0.5,1.3-0.9,1.8
		c-0.3,0.4-0.6,0.6-1,0.6c-0.2,0-0.3,0-0.3,0l0.1-0.5c0,0,0.1,0,0.2,0c0.5,0,0.8-0.5,0.9-0.8c0-0.1,0-0.2,0-0.3l-1.5-3.1H59.8z"/>
	<path d="M69.9,58.7v4.6h-0.6v-4.1h-2.1v4.1h-0.6v-4.6H69.9z"/>
	<path d="M75.1,61.9l-0.5,1.4h-0.6l1.6-4.6h0.7l1.6,4.6h-0.6l-0.5-1.4H75.1z M76.7,61.4l-0.5-1.3c-0.1-0.3-0.2-0.6-0.2-0.8h0
		c-0.1,0.3-0.1,0.6-0.2,0.8l-0.5,1.3H76.7z"/>
	<path d="M92.3,58.7v2h0.2l1.6-2h0.7l-1.7,2.1c0.8,0.1,1.1,0.6,1.3,1.2c0.2,0.5,0.3,0.9,0.5,1.3h-0.6c-0.2-0.3-0.3-0.7-0.4-1.1
		c-0.2-0.6-0.5-1-1.3-1h-0.2v2.1h-0.6v-4.6H92.3z"/>
	<path d="M102.7,61c0,1.6-1,2.4-2.1,2.4c-1.2,0-2.1-0.9-2.1-2.3c0-1.5,0.9-2.4,2.1-2.4C101.9,58.6,102.7,59.6,102.7,61z M99.1,61
		c0,1,0.5,1.9,1.5,1.9c0.9,0,1.5-0.9,1.5-1.9c0-0.9-0.5-1.9-1.5-1.9C99.6,59.1,99.1,60,99.1,61z"/>
	<path d="M110.7,61.3c0-0.6-0.1-1.4-0.1-2h0c-0.2,0.5-0.3,1.1-0.6,1.8l-0.8,2.2h-0.5l-0.7-2.2c-0.2-0.6-0.4-1.2-0.5-1.8h0
		c0,0.6,0,1.3-0.1,2l-0.1,2h-0.6l0.3-4.6h0.8l0.8,2.2c0.2,0.6,0.3,1.1,0.5,1.6h0c0.1-0.5,0.3-1,0.5-1.6l0.8-2.2h0.8l0.3,4.6h-0.6
		L110.7,61.3z"/>
	<path d="M119.1,58.7v4.6h-0.6v-4.1h-2.1v4.1h-0.6v-4.6H119.1z"/>
	<path d="M124.3,61.9l-0.5,1.4h-0.6l1.6-4.6h0.7l1.6,4.6h-0.6l-0.5-1.4H124.3z M125.8,61.4l-0.5-1.3c-0.1-0.3-0.2-0.6-0.2-0.8h0
		c-0.1,0.3-0.1,0.6-0.2,0.8l-0.5,1.3H125.8z"/>
	<path d="M131.8,58.7v1.9h2.2v-1.9h0.6v4.6H134v-2.2h-2.2v2.2h-0.6v-4.6H131.8z"/>
	<path d="M139.6,58.7v4.6H139v-4.6H139.6z"/>
	<path d="M144.7,58.7v1.9c0,0.7,0,1.3-0.1,1.9l0,0c0.2-0.5,0.5-1,0.9-1.5l1.5-2.4h0.6v4.6H147v-2c0-0.7,0-1.3,0.1-1.9l0,0
		c-0.2,0.5-0.5,1-0.9,1.6l-1.4,2.3h-0.6v-4.6H144.7z M145.4,57.7c0,0.2,0.1,0.4,0.4,0.4c0.3,0,0.4-0.2,0.4-0.4h0.5
		c0,0.5-0.3,0.7-0.9,0.7c-0.6,0-0.8-0.3-0.9-0.7H145.4z"/>
</g>
</svg>
