<?xml version="1.0" encoding="utf-8"?>
<!-- Generator: Adobe Illustrator 19.0.0, SVG Export Plug-In . SVG Version: 6.00 Build 0)  -->
<svg version="1.1" id="Layer_1" xmlns="http://www.w3.org/2000/svg" xmlns:xlink="http://www.w3.org/1999/xlink" x="0px" y="0px"
	 viewBox="0 0 40.9 40.6" style="enable-background:new 0 0 40.9 40.6;" xml:space="preserve">
<style type="text/css">
	.st0{fill:none;stroke:#6EAD3B;stroke-width:2;stroke-miterlimit:10;}
	.st1{fill:#6EAD3B;}
</style>
<path id="XMLID_158_" class="st0" d="M35.2,39.2H5.7c-2.2,0-4.1-1.8-4.1-4.1V5.6c0-2.2,1.8-4.1,4.1-4.1h29.5c2.2,0,4.1,1.8,4.1,4.1
	v29.5C39.3,37.4,37.4,39.2,35.2,39.2z"/>
<path id="XMLID_155_" class="st1" d="M11.4,9.3h17.2c2.3,0,4.3,1.7,4.7,3.9H6.7C7.1,11,9.1,9.3,11.4,9.3 M35.3,14.1
	c0-3.7-3-6.7-6.7-6.7H11.4c-3.7,0-6.7,3-6.7,6.7v0.9h1.9v18.2h1.9V15.1h23v18.2h1.9V15.1h1.9V14.1z"/>
</svg>
