<?xml version="1.0" encoding="utf-8"?>
<!-- Generator: Adobe Illustrator 19.0.0, SVG Export Plug-In . SVG Version: 6.00 Build 0)  -->
<svg version="1.1" id="Layer_1" xmlns="http://www.w3.org/2000/svg" xmlns:xlink="http://www.w3.org/1999/xlink" x="0px" y="0px"
	 viewBox="0 0 40.9 40.6" style="enable-background:new 0 0 40.9 40.6;" xml:space="preserve">
<style type="text/css">
	.st0{fill:#6EAD3B;}
	.st1{fill:none;stroke:#6EAD3B;stroke-width:2;stroke-miterlimit:10;}
</style>
<g id="XMLID_3_">
	<g id="XMLID_4_">
		<path id="XMLID_154_" class="st0" d="M28.3,18.8c-0.4,0-0.7,0.3-0.7,0.7v6.1c0,0.4,0.3,0.7,0.7,0.7c0.4,0,0.7-0.3,0.7-0.7v-6.1
			C29,19.1,28.7,18.8,28.3,18.8"/>
		<path id="XMLID_153_" class="st0" d="M13,18.8c-0.4,0-0.7,0.3-0.7,0.7v6.1c0,0.4,0.3,0.7,0.7,0.7s0.7-0.3,0.7-0.7v-6.1
			C13.7,19.1,13.4,18.8,13,18.8"/>
		<path id="XMLID_152_" class="st0" d="M32.5,19.1c0-3.1-1.3-6-3.5-8.2c-2.2-2.2-5.2-3.5-8.3-3.5c-3.2,0-6.1,1.2-8.3,3.5
			c-2.2,2.2-3.4,5.1-3.5,8.2c-0.9,0.6-1.5,1.6-1.5,2.8v1.2c0,1.8,1.5,3.4,3.4,3.4c0.5,0,0.9-0.4,0.9-0.9v-6.1c0-0.5-0.4-0.9-0.9-0.9
			c-0.1,0-0.2,0-0.3,0c0.2-2.6,1.4-5,3.2-6.7c0,0.2,0.1,0.4,0.2,0.5c0.5,0.8,1.5,1,2.3,0.5c1.3-0.8,2.9-1.3,4.5-1.3
			c1.6,0,3.1,0.4,4.5,1.3c0.8,0.5,1.8,0.3,2.3-0.5c0.1-0.2,0.2-0.3,0.2-0.5c1.8,1.7,3,4.1,3.2,6.7c-0.1,0-0.2,0-0.3,0
			c-0.5,0-0.9,0.4-0.9,0.9v6.1c0,0.4,0.2,0.7,0.5,0.8c-0.1,0.3-0.3,0.7-0.4,1c-0.8,1.5-2,2.4-3.9,2.8c-0.3-0.5-0.7-0.8-1.3-0.8h-2.5
			c-0.8,0-1.5,0.7-1.5,1.5V31c0,0.8,0.7,1.5,1.5,1.5h2.5c0.6,0,1.1-0.3,1.3-0.8c1-0.2,1.8-0.5,2.5-0.9c1.2-0.6,2.1-1.6,2.7-2.8
			c0.3-0.6,0.5-1.2,0.7-1.9c1.2-0.5,2-1.7,2-3.1v-1.2C33.9,20.7,33.3,19.7,32.5,19.1"/>
		<path id="XMLID_151_" class="st0" d="M14.5,24.4c0-2.9,3.8-3.4,3.8-5c0-0.7-0.5-1.1-1.2-1.1c-0.6,0-1.2,0.4-1.5,1l-1.1-0.7
			c0.5-0.9,1.4-1.6,2.7-1.6c1.4,0,2.6,0.9,2.6,2.4c0,2.6-3.6,3.1-3.7,4.6h3.8v1.3h-5.4C14.5,24.9,14.5,24.7,14.5,24.4"/>
		<path id="XMLID_6_" class="st0" d="M24.7,21.9v-2.5c0-0.4,0.1-0.8,0.1-0.8h0c0,0-0.2,0.4-0.4,0.7l-1.9,2.6v0H24.7z M20.9,22.2
			l3.5-5.1h1.7v4.8h1.1v1.2h-1.1v2.1h-1.5v-2.1h-3.8V22.2z"/>
		<path id="XMLID_5_" class="st1" d="M35.4,39.1H5.9c-2.2,0-4.1-1.8-4.1-4.1V5.5c0-2.2,1.8-4.1,4.1-4.1h29.5c2.2,0,4.1,1.8,4.1,4.1
			v29.5C39.5,37.3,37.7,39.1,35.4,39.1z"/>
	</g>
</g>
</svg>
