<?xml version="1.0" encoding="utf-8"?>
<!-- Generator: Adobe Illustrator 19.0.0, SVG Export Plug-In . SVG Version: 6.00 Build 0)  -->
<svg version="1.1" id="Layer_1" xmlns="http://www.w3.org/2000/svg" xmlns:xlink="http://www.w3.org/1999/xlink" x="0px" y="0px"
	 viewBox="0 0 40.9 40.6" style="enable-background:new 0 0 40.9 40.6;" xml:space="preserve">
<style type="text/css">
	.st0{fill:#6EAD3B;}
	.st1{fill:none;stroke:#6EAD3B;stroke-width:2;stroke-miterlimit:10;}
	.st2{fill:none;stroke:#6EAD3B;stroke-linecap:round;stroke-linejoin:round;stroke-miterlimit:10;}
</style>
<g id="XMLID_3_">
	<path id="XMLID_157_" class="st0" d="M14.2,24.3c-0.2,0-0.4,0.2-0.4,0.4v2.9l-1-1c-0.2-0.2-0.4-0.2-0.5,0c-0.1,0.2-0.1,0.4,0,0.6
		l1.5,1.6v1.6c-0.5-0.1-1-0.2-1.4-0.5c0,0,0,0,0,0c-0.1-0.5-0.3-1.2-0.5-1.8c-0.3-0.9-0.6-1.5-1-1.9c0.4-3.1,2.4-7.7,3.3-9.5
		c0.9,1.9,3.3,7.3,3.3,10.3c0,1.8-1.3,3.3-2.9,3.5v-2.9l1.5-1.6c0.2-0.2,0.2-0.4,0-0.6c-0.2-0.2-0.4-0.2-0.5,0l-1,1v-1.6
		C14.6,24.4,14.4,24.3,14.2,24.3 M13.8,34.6h-1.3v-3.9c0.4,0.2,0.8,0.3,1.3,0.4V34.6z M10.4,32v-0.9c0-0.2-0.2-0.4-0.4-0.4
		c-0.2,0-0.4,0.2-0.4,0.4V32c-0.7-0.1-1.3-0.6-1.3-1.2c0-0.4,0.2-1.5,0.6-2.6c0.5-1.4,0.9-1.8,1.1-1.8c0.2,0,0.6,0.4,1.1,1.8
		c0.4,1.1,0.6,2.3,0.6,2.6C11.7,31.4,11.2,31.9,10.4,32 M11.7,34.6h-1.3v-1.8c0.5-0.1,0.9-0.3,1.3-0.5V34.6z M9.7,34.6H8.8v-2.1
		c0.3,0.1,0.6,0.2,0.9,0.3V34.6z M8,34.6H6.3v-3.5c0.5-0.1,1-0.4,1.4-0.7c0,0.2,0,0.4,0,0.5c0,0.4,0.1,0.8,0.4,1.1V34.6z M5.9,29
		c-0.2,0-0.4,0.2-0.4,0.4v0.8c-0.7-0.2-1.3-0.8-1.3-1.6c0-0.5,0.2-2,0.6-3.4c0.5-2,1-2.4,1.1-2.4c0.1,0,0.6,0.4,1.1,2.4
		c0.4,1.4,0.6,2.9,0.6,3.4c0,0.8-0.5,1.4-1.3,1.6v-0.8C6.3,29.2,6.1,29,5.9,29 M18.6,34.6h-4.1v-3.5c0.6-0.1,1.3-0.4,1.7-0.6
		c4.1-1.9,0.9-8.7,1-8.5c-1.1-3.2-2.6-6.4-2.7-6.6c-0.1-0.1-0.2-0.2-0.3-0.2c-0.1,0-0.3,0.1-0.3,0.2c0,0-0.8,1.7-1.7,3.8
		c-1.1,2.6-1.7,4.7-1.9,6.4c0,0-0.1,0-0.1,0c-0.7,0-1.3,0.8-1.8,2.3C8.2,27.1,8,26,7.7,25.1c-0.3-1.3-0.9-2.9-1.8-2.9
		c-0.9,0-1.5,1.7-1.8,2.9c-0.4,1.4-0.6,3-0.6,3.6c0,1.2,0.9,2.2,2.1,2.4v3.5H3.8c-0.2,0-0.4,0.2-0.4,0.4c0,0.2,0.2,0.4,0.4,0.4h14.8
		c0.2,0,0.4-0.2,0.4-0.4C19,34.8,18.8,34.6,18.6,34.6"/>
	<path id="XMLID_156_" class="st1" d="M35.2,39.1H5.7c-2.2,0-4.1-1.8-4.1-4.1V5.5c0-2.2,1.8-4.1,4.1-4.1h29.5c2.2,0,4.1,1.8,4.1,4.1
		v29.5C39.3,37.3,37.4,39.1,35.2,39.1z"/>
	<path id="XMLID_155_" class="st2" d="M26.6,19.4c-0.2-0.2-0.4-0.2-0.6,0l-7,6.1c-0.1,0.1-0.2,0.2-0.2,0.4v8.8
		c0,0.3,0.2,0.5,0.5,0.5h14.1c0.3,0,0.5-0.2,0.5-0.5v-8.8c0-0.1-0.1-0.3-0.2-0.4L26.6,19.4z"/>
	<path id="XMLID_154_" class="st0" d="M37.1,23.4L27,14.7c-0.4-0.3-0.9-0.3-1.3,0l-10.1,8.7c-0.4,0.4-0.5,1-0.1,1.4
		c0.4,0.4,1,0.5,1.4,0.1l9.5-8.1l9.5,8.1c0.2,0.2,0.4,0.2,0.7,0.2c0.3,0,0.6-0.1,0.8-0.4C37.6,24.4,37.5,23.7,37.1,23.4"/>
	<path id="XMLID_8_" class="st0" d="M33.4,7.8c-2.6,0.8-5.9,4.2-6.6,6.8C28.1,13.8,31.3,10.5,33.4,7.8 M36,5.2
		c-1.9,5.4-0.6,11.5-10,10.1C25.2,9.3,27.4,5,36,5.2 M25.8,8.7c-0.4,0.7-0.6,1.4-0.8,2.2c-0.6-1.1-1.5-2.2-2.4-2.6
		c0.6,1.2,1.5,2.6,2.2,3.6c0,0.1,0,0.3,0,0.4v0.1l0,0v0l0,0c0,0,0,0.1,0,0.1v0.1l0,0.1v0.1l0,0V13c0,0.4,0,0.7,0,1.1
		c-1.1-1.1-3-2-4.3-1.9c1.4,0.9,3.3,1.9,4.4,2.3c0,0.3,0.1,0.5,0.1,0.8c-4,1.6-4.5-1.6-6.4-4c1.2-0.5,2.3-0.6,3.2-0.6
		c-0.3-1.2-0.1-2.7-0.4-4.2C23.7,6.9,25.1,7.6,25.8,8.7"/>
	<path id="XMLID_7_" class="st0" d="M13.1,13.2c-0.3,0-0.6-0.3-0.6-0.6c0-0.3,0.3-0.6,0.6-0.6c0.9,0,1.7-0.8,1.7-1.7
		S14,8.6,13.1,8.6c-0.1,0-0.3,0-0.5,0.1L12,8.8l-0.1-0.6c-0.2-1.1-1.1-1.9-2.3-1.9c-1.3,0-2.3,1-2.3,2.3c0,0.2,0,0.3,0,0.5l0.1,0.7
		l-0.8,0c-0.6,0-1.1,0.5-1.1,1.2c0,0.6,0.5,1.1,1.1,1.1c0.3,0,0.6,0.3,0.6,0.6c0,0.3-0.3,0.6-0.6,0.6c-1.3,0-2.3-1-2.3-2.3
		c0-1.1,0.7-2,1.7-2.2c0,0,0-0.1,0-0.1c0-1.9,1.5-3.4,3.4-3.4c1.5,0,2.8,0.9,3.2,2.3c1.7-0.1,3.1,1.2,3.1,2.9
		C15.9,11.9,14.6,13.2,13.1,13.2"/>
	<path id="XMLID_6_" class="st0" d="M9.3,12.1l0.6-1.7l0.6,1.7c0.1,0.3-0.1,0.7-0.4,0.8c-0.3,0.1-0.7-0.1-0.8-0.4
		C9.3,12.4,9.3,12.2,9.3,12.1"/>
	<path id="XMLID_5_" class="st0" d="M11,13.3l0.6-1.7l0.6,1.7c0.1,0.3-0.1,0.7-0.4,0.8c-0.3,0.1-0.7-0.1-0.8-0.4
		C11,13.5,11,13.4,11,13.3"/>
	<path id="XMLID_4_" class="st0" d="M7.6,13.3l0.6-1.7l0.6,1.7c0.1,0.3-0.1,0.7-0.4,0.8c-0.3,0.1-0.7-0.1-0.8-0.4
		C7.6,13.5,7.6,13.4,7.6,13.3"/>
</g>
</svg>
