<?xml version="1.0" encoding="utf-8"?>
<!-- Generator: Adobe Illustrator 19.0.0, SVG Export Plug-In . SVG Version: 6.00 Build 0)  -->
<svg version="1.1" id="Layer_1" xmlns="http://www.w3.org/2000/svg" xmlns:xlink="http://www.w3.org/1999/xlink" x="0px" y="0px"
	 viewBox="0 0 40.9 40.6" style="enable-background:new 0 0 40.9 40.6;" xml:space="preserve">
<style type="text/css">
	.st0{clip-path:url(#XMLID_215_);fill:none;stroke:#6EAD3B;stroke-width:2;stroke-miterlimit:10;}
	.st1{clip-path:url(#XMLID_216_);fill:#6EAD3B;}
	.st2{fill:#6EAD3B;}
	.st3{fill:none;stroke:#6EAD3B;stroke-width:0.75;stroke-linecap:round;stroke-linejoin:round;stroke-miterlimit:10;}
	.st4{fill:#FFFFFF;}
</style>
<g id="XMLID_3_">
	<g id="XMLID_212_">
		<defs>
			<rect id="XMLID_213_" x="0.6" y="0.5" width="39.7" height="39.7"/>
		</defs>
		<clipPath id="XMLID_215_">
			<use xlink:href="#XMLID_213_"  style="overflow:visible;"/>
		</clipPath>
		<path id="XMLID_214_" class="st0" d="M35.2,39.1H5.7c-2.2,0-4.1-1.8-4.1-4.1V5.5c0-2.2,1.8-4.1,4.1-4.1h29.5
			c2.2,0,4.1,1.8,4.1,4.1v29.5C39.3,37.3,37.4,39.1,35.2,39.1z"/>
	</g>
	<g id="XMLID_152_">
		<defs>
			<rect id="XMLID_153_" x="0.6" y="1.2" width="36.6" height="38.2"/>
		</defs>
		<clipPath id="XMLID_216_">
			<use xlink:href="#XMLID_153_"  style="overflow:visible;"/>
		</clipPath>
		<path id="XMLID_154_" class="st1" d="M29.8,29.3H9.6c-0.3,0-0.5-0.2-0.5-0.5c0-0.3,0.2-0.5,0.5-0.5h20.2c0.3,0,0.5,0.2,0.5,0.5
			C30.3,29.1,30.1,29.3,29.8,29.3 M29.3,30.5l-0.2,0.2l-0.6-0.6h0.8L29.3,30.5z M29.1,35.3l-1.6-1.6l1.7-1.7l0.1,0.1L29.1,35.3z
			 M28.8,39.6l-1.4-1.4l1.6-1.6L28.8,39.6z M28.6,44l-1.1-1.1l1.3-1.3L28.6,44z M28.5,45.1l-1.7,1.7l-1.7-1.7l1.7-1.7L28.5,45.1
			C28.5,45.1,28.5,45.1,28.5,45.1 M28.3,48.3l-0.9-0.9l1-1L28.3,48.3z M28.2,50l-1.4,1.4l-1.7-1.7l1.7-1.7l1.4,1.4L28.2,50z
			 M28.1,51.8c0,0.2-0.1,0.5-0.2,0.7L27.4,52l0.7-0.7L28.1,51.8z M26.7,53.2h-0.5l0.6-0.6l0.5,0.5C27.1,53.1,26.9,53.2,26.7,53.2
			 M25,53.2h-1L22.8,52l1.7-1.7l1.7,1.7L25,53.2z M21.7,53.2l0.6-0.6l0.6,0.6H21.7z M20.4,53.2h-1L18.3,52l1.7-1.7l1.7,1.7
			L20.4,53.2z M17.1,53.2l0.6-0.6l0.6,0.6H17.1z M15.9,53.2h-1L13.7,52l1.7-1.7L17,52L15.9,53.2z M12.7,53.2c-0.1,0-0.1,0-0.2,0
			l0.6-0.6l0.6,0.6H12.7z M11.7,52.7c-0.2-0.2-0.4-0.6-0.4-0.9l-0.1-1.1l1.2,1.2L11.7,52.7z M11,45.9l1.5,1.5l-1.3,1.3L11,45.9z
			 M10.7,41.2L10.7,41.2l1.8,1.6l-1.6,1.6L10.7,41.2z M10.5,36.9l0.3-0.3l1.7,1.7l-1.7,1.7l-0.2-0.2L10.5,36.9z M13.1,33l-1.7-1.7
			l1.2-1.2h1l1.2,1.2L13.1,33z M17.6,33L16,31.3l1.2-1.2h1l1.2,1.2L17.6,33z M22.2,33l-1.7-1.7l1.2-1.2h1l1.2,1.2L22.2,33z
			 M25.1,31.3l1.2-1.2h1l1.2,1.2L26.8,33L25.1,31.3z M25.1,35.9l1.7-1.7l1.7,1.7l-1.7,1.7L25.1,35.9z M25.1,40.5l1.7-1.7l1.7,1.7
			l-1.7,1.7L25.1,40.5z M22.8,42.8l1.7-1.7l1.7,1.7l-1.7,1.7L22.8,42.8z M22.8,47.4l1.7-1.7l1.7,1.7l-1.7,1.7L22.8,47.4z M22.2,48
			l1.7,1.7l-1.7,1.7l-1.7-1.7L22.2,48z M18.3,47.4l1.7-1.7l1.7,1.7l-1.7,1.7L18.3,47.4z M17.6,48l1.7,1.7l-1.7,1.7L16,49.7L17.6,48z
			 M13.7,47.4l1.7-1.7l1.7,1.7l-1.7,1.7L13.7,47.4z M14.7,49.7l-1.7,1.7l-1.7-1.7l1.7-1.7L14.7,49.7z M14.7,45.1l-1.7,1.7l-1.7-1.7
			l1.7-1.7L14.7,45.1z M14.7,40.5l-1.7,1.7l-1.7-1.7l1.7-1.7L14.7,40.5z M13.1,37.6l-1.7-1.7l1.7-1.7l1.7,1.7L13.1,37.6z M17,38.2
			l-1.7,1.7l-1.7-1.7l1.7-1.7L17,38.2z M17.6,37.6L16,35.9l1.7-1.7l1.7,1.7L17.6,37.6z M21.6,38.2l-1.7,1.7l-1.7-1.7l1.7-1.7
			L21.6,38.2z M22.2,37.6l-1.7-1.7l1.7-1.7l1.7,1.7L22.2,37.6z M22.8,38.2l1.7-1.7l1.7,1.7l-1.7,1.7L22.8,38.2z M20.5,40.5l1.7-1.7
			l1.7,1.7l-1.7,1.7L20.5,40.5z M22.2,43.4l1.7,1.7l-1.7,1.7l-1.7-1.7L22.2,43.4z M18.3,42.8l1.7-1.7l1.7,1.7l-1.7,1.7L18.3,42.8z
			 M17.6,43.4l1.7,1.7l-1.7,1.7L16,45.1L17.6,43.4z M16,40.5l1.7-1.7l1.7,1.7l-1.7,1.7L16,40.5z M17,42.8l-1.7,1.7l-1.7-1.7l1.7-1.7
			L17,42.8z M24,30.2h1.1l-0.6,0.6L24,30.2z M24.5,32l1.7,1.7l-1.7,1.7l-1.7-1.7L24.5,32z M19.4,30.2h1.1l-0.6,0.6L19.4,30.2z
			 M19.9,32l1.7,1.7l-1.7,1.7l-1.7-1.7L19.9,32z M14.8,30.2h1.1l-0.6,0.6L14.8,30.2z M15.4,32l1.7,1.7l-1.7,1.7l-1.7-1.7L15.4,32z
			 M10.2,30.2h1.1l-0.6,0.6L10.2,30.2z M10.3,34.9l-0.1-2.4l0.6-0.6l1.7,1.7l-1.7,1.7L10.3,34.9z M10.1,31.4L10.1,31.4L10.1,31.4
			L10.1,31.4z M29.8,27.5H9.6c-0.7,0-1.3,0.6-1.3,1.3c0,0.6,0.4,1.1,0.9,1.3l1.2,21.8c0.1,1.2,1.1,2.1,2.3,2.1h14
			c0.5,0,1-0.2,1.4-0.5c0,0,0.1,0,0.1-0.1c0,0,0-0.1,0.1-0.1c0.4-0.4,0.6-0.9,0.7-1.5l1.2-21.8c0.5-0.2,0.9-0.7,0.9-1.3
			C31.1,28.1,30.5,27.5,29.8,27.5"/>
	</g>
	<g id="XMLID_4_">
		<path id="XMLID_151_" class="st2" d="M20.4,28.2c-0.5,0-0.9,0-0.9-0.5V21c0-0.5,0.4-0.9,0.9-0.9s0.9,0.4,0.9,0.9v6.7
			C21.3,28.2,20.9,28.2,20.4,28.2"/>
		<path id="XMLID_8_" class="st2" d="M23.5,24.3h-6c-3.8,0-5.7-1.9-5.7-5.7v-7.4c0-3.8,1.9-5.7,5.7-5.7h6c3.8,0,5.6,1.9,5.6,5.7
			l0.1,7.4C29.1,22.4,27.2,24.3,23.5,24.3"/>
		<path id="XMLID_7_" class="st3" d="M23.5,24.3h-6c-3.8,0-5.7-1.9-5.7-5.7v-7.4c0-3.8,1.9-5.7,5.7-5.7h6c3.8,0,5.6,1.9,5.6,5.7
			l0.1,7.4C29.1,22.4,27.2,24.3,23.5,24.3z"/>
		<path id="XMLID_6_" class="st4" d="M28.3,10.3c-0.1-0.1-0.1-0.1-0.2-0.1l-1.4,0c-0.2-0.3-0.6-0.5-1-0.5c0,0-0.1,0-0.1,0l-0.4-0.8
			c0-0.1-0.2-0.2-0.3-0.2c-0.1,0-0.2,0.1-0.3,0.2l-0.2,0.5L24,8.8c-0.1-0.1-0.2-0.1-0.3-0.1c-0.1,0-0.2,0.2-0.2,0.3v4.9
			c0,0-5.3,1.2-5.4,1.2c-0.3,0-0.7,0-1-0.2c-0.3-0.2-0.5-0.5-0.5-0.9c0-0.3,0-0.7,0.2-1c0.2-0.3,0.5-0.5,0.9-0.5
			c0.2,0,0.3-0.2,0.2-0.3c0-0.2-0.2-0.3-0.3-0.2c-0.5,0.1-0.9,0.3-1.2,0.7C16.1,13,16,13.5,16.1,14c0.1,0.5,0.3,0.9,0.7,1.2
			c0.3,0.2,0.6,0.3,0.9,0.4c-0.1,0.1-0.1,0.3-0.2,0.4c-0.1,0.5-0.2,1.3,0.3,2.4L17,19.5c-0.1,0.1-0.1,0.2,0,0.3l0.4,1.2
			c0,0.1,0.1,0.2,0.3,0.2H18c0.2,0,0.3-0.1,0.3-0.3c0,0,0-0.1,0-0.1l-0.2-0.6l2.4-1.7c0,0,0,0,0,0c0.2-0.2,0.4-0.4,0.6-0.7l3.1-0.1
			l0.5,3.2c0,0.1,0.1,0.2,0.3,0.2h0.3c0.2,0,0.3-0.1,0.3-0.3v-3.2c0.4-0.2,0.5-0.6,0.5-0.9v-4c1.2,0,2.2-0.9,2.3-2.1
			C28.3,10.4,28.3,10.4,28.3,10.3"/>
		<path id="XMLID_5_" class="st4" d="M15.9,19.9L15.9,19.9c0-0.1,0.1-0.2,0.1-0.4c0-0.3-0.3-0.6-0.6-0.6h0c0.1-0.1,0.1-0.2,0.1-0.4
			c0-0.3-0.3-0.6-0.6-0.6h-0.7c-0.3,0-0.6,0.3-0.6,0.6c0,0.1,0.1,0.3,0.1,0.4h0c-0.3,0-0.6,0.3-0.6,0.6c0,0.1,0.1,0.3,0.1,0.4h0
			c-0.3,0-0.6,0.3-0.6,0.6s0.3,0.6,0.6,0.6h2.7c0.3,0,0.6-0.3,0.6-0.6S16.2,19.9,15.9,19.9"/>
	</g>
</g>
</svg>
