<?xml version="1.0" encoding="utf-8"?>
<!-- Generator: Adobe Illustrator 19.0.0, SVG Export Plug-In . SVG Version: 6.00 Build 0)  -->
<svg version="1.1" id="Layer_1" xmlns="http://www.w3.org/2000/svg" xmlns:xlink="http://www.w3.org/1999/xlink" x="0px" y="0px"
	 viewBox="0 0 40.9 40.6" style="enable-background:new 0 0 40.9 40.6;" xml:space="preserve">
<style type="text/css">
	.st0{fill:#6EAD3B;}
	.st1{fill:none;stroke:#6EAD3B;stroke-miterlimit:10;}
	.st2{fill:none;stroke:#6EAD3B;stroke-width:2;stroke-miterlimit:10;}
</style>
<g id="XMLID_3_">
	<g id="XMLID_4_">
		<path id="XMLID_159_" class="st0" d="M19.9,22.5c-3.2,0-6,0.5-7.4,3.6v0c0,0-2.9,1.3-3.9,1.6c-0.4,0.1-0.7,0.8-0.8,1.6
			c-0.4,0.3-0.6,0.8-0.6,1.4c0,0.4,0.1,0.8,0.4,1.1v0h0c0.3,0.4,0.8,0.7,1.4,0.7H9c0-0.2,0-0.5,0.1-0.7c0.3-1.3,1.4-2.2,2.7-2.3
			c0.1,0,0.2,0,0.3,0c0.2,0,0.4,0,0.5,0c1.2,0.2,2.2,1.1,2.4,2.3c0.1,0.2,0.1,0.5,0.1,0.7h5.8c0-0.2,0-0.5,0.1-0.7
			c0.3-1.4,1.5-2.4,3-2.4c1.4,0,2.7,1,3,2.4c0,0.2,0.1,0.4,0.1,0.7c0.9-0.1,1.6-0.8,1.6-1.8c0-0.5-0.2-0.9-0.5-1.2
			C27.5,23.3,24,22.5,19.9,22.5"/>
		<path id="XMLID_156_" class="st0" d="M23.9,33.8c-0.7,0-1.3-0.6-1.3-1.3c0-0.3,0.1-0.5,0.2-0.7c0.2-0.4,0.6-0.6,1.1-0.6
			c0.5,0,0.9,0.2,1.1,0.6c0.1,0.2,0.2,0.4,0.2,0.7C25.2,33.2,24.7,33.8,23.9,33.8 M23.9,30.1c-1.1,0-1.9,0.7-2.2,1.7
			c-0.1,0.2-0.1,0.4-0.1,0.7c0,1.3,1.1,2.3,2.3,2.3c1.3,0,2.3-1.1,2.3-2.3c0-0.2,0-0.5-0.1-0.7C25.9,30.8,25,30.1,23.9,30.1"/>
		<path id="XMLID_153_" class="st0" d="M12,33.8c-0.7,0-1.3-0.6-1.3-1.3c0-0.3,0.1-0.5,0.2-0.7c0.2-0.2,0.4-0.4,0.7-0.5
			c0.1,0,0.3-0.1,0.4-0.1c0.2,0,0.4,0,0.5,0.1c0.2,0.1,0.4,0.3,0.5,0.5c0.1,0.2,0.2,0.4,0.2,0.7C13.3,33.2,12.7,33.8,12,33.8
			 M12.6,30.2c-0.2,0-0.3-0.1-0.5-0.1c-0.1,0-0.2,0-0.3,0c-0.9,0.1-1.6,0.8-1.9,1.6c-0.1,0.2-0.1,0.4-0.1,0.7c0,1.3,1.1,2.3,2.3,2.3
			c1.3,0,2.3-1.1,2.3-2.3c0-0.2,0-0.5-0.1-0.7C14,31,13.4,30.4,12.6,30.2"/>
		<path id="XMLID_152_" class="st0" d="M30.5,23.2l-11.3-9.7c-0.4-0.4-1-0.4-1.5,0L6.5,23.2c-0.5,0.4-0.5,1.1-0.1,1.6
			c0.4,0.5,1.1,0.5,1.6,0.1l10.5-9.1l10.5,9.1c0.2,0.2,0.5,0.3,0.7,0.3c0.3,0,0.6-0.1,0.9-0.4C31.1,24.3,31,23.6,30.5,23.2"/>
		<path id="XMLID_7_" class="st0" d="M29.5,10.3c0.9,0,1.4-0.6,1.4-1.4c0-0.8-0.5-1.4-1.4-1.4h-1.4v2.8H29.5z M26.6,6.2h3.2
			c1.5,0,2.6,1.1,2.6,2.7c0,1.6-1.1,2.7-2.6,2.7h-1.7v2.8h-1.5V6.2z"/>
		<circle id="XMLID_6_" class="st1" cx="28.7" cy="10.4" r="5.9"/>
		<path id="XMLID_5_" class="st2" d="M35.2,39.1H5.7c-2.2,0-4.1-1.8-4.1-4.1V5.5c0-2.2,1.8-4.1,4.1-4.1h29.5c2.2,0,4.1,1.8,4.1,4.1
			v29.5C39.3,37.3,37.4,39.1,35.2,39.1z"/>
	</g>
</g>
</svg>
