<?xml version="1.0" encoding="utf-8"?>
<!-- Generator: Adobe Illustrator 19.0.0, SVG Export Plug-In . SVG Version: 6.00 Build 0)  -->
<svg version="1.1" id="Layer_1" xmlns="http://www.w3.org/2000/svg" xmlns:xlink="http://www.w3.org/1999/xlink" x="0px" y="0px"
	 viewBox="0 0 40.9 40.6" style="enable-background:new 0 0 40.9 40.6;" xml:space="preserve">
<style type="text/css">
	.st0{fill:#6EAD3B;}
	.st1{fill:none;stroke:#6EAD3B;stroke-width:2;stroke-miterlimit:10;}
</style>
<g id="XMLID_2_">
	<g id="XMLID_3_">
		<path id="XMLID_6_" class="st0" d="M30.1,31.9h-11c1.7-2.9,2.7-9.5,2.7-12.8c1.2,2.3,1.1,6.7-0.5,9.8c-0.1,0.1,0,0.3,0.1,0.4
			c0.1,0.1,0.3,0.1,0.4,0.1c1.1-0.4,3.1-1.3,4-4c1.3-3.9-1.1-8.4-5.3-10c-0.1,0-0.2,0-0.3,0c-0.1,0-0.1,0.1-0.2,0.2
			c-0.6,1.7-1.7,2.9-2.7,4.1c-1.2,1.4-2.4,2.7-2.4,4.5c0.1,2.1,1.7,4.3,3.3,5.4c0.1,0.1,0.3,0.8-0.1,2.2h-7.3V19.9l9.7-8.4l9.7,8.4
			V31.9z M20.9,10.2c-0.3-0.2-0.6-0.2-0.9,0L9.6,19.1c-0.2,0.1-0.2,0.3-0.2,0.5v12.9c0,0.4,0.3,0.7,0.7,0.7h20.7
			c0.4,0,0.7-0.3,0.7-0.7V19.6c0-0.2-0.1-0.4-0.2-0.5L20.9,10.2z"/>
		<path id="XMLID_5_" class="st0" d="M35.1,17.2L21.3,5.4c-0.5-0.4-1.3-0.4-1.8,0L5.8,17.2c-0.6,0.5-0.6,1.4-0.1,1.9
			s1.4,0.6,1.9,0.1L20.4,8.2l12.9,11.1c0.3,0.2,0.6,0.3,0.9,0.3c0.4,0,0.8-0.2,1-0.5C35.7,18.6,35.6,17.7,35.1,17.2"/>
		<path id="XMLID_4_" class="st1" d="M35.2,39.2H5.6c-2.2,0-4.1-1.8-4.1-4.1V5.6c0-2.2,1.8-4.1,4.1-4.1h29.5c2.2,0,4.1,1.8,4.1,4.1
			v29.5C39.3,37.3,37.4,39.2,35.2,39.2z"/>
	</g>
</g>
</svg>
