<?xml version="1.0" encoding="utf-8"?>
<!-- Generator: Adobe Illustrator 19.0.0, SVG Export Plug-In . SVG Version: 6.00 Build 0)  -->
<svg version="1.1" id="Layer_1" xmlns="http://www.w3.org/2000/svg" xmlns:xlink="http://www.w3.org/1999/xlink" x="0px" y="0px"
	 viewBox="0 0 40.9 40.6" style="enable-background:new 0 0 40.9 40.6;" xml:space="preserve">
<style type="text/css">
	.st0{fill:#6EAD3B;}
	.st1{fill:none;stroke:#6EAD3B;stroke-width:2;stroke-miterlimit:10;}
</style>
<g>
	<g>
		<path class="st0" d="M14.5,16.3c0,0.3-0.2,0.6-0.5,0.6H9.9c-0.3,0-0.5-0.3-0.5-0.6V12c0-0.3,0.2-0.6,0.5-0.6H14
			c0.3,0,0.5,0.3,0.5,0.6V16.3z M14,10.4H9.9c-0.8,0-1.5,0.7-1.5,1.6v4.3c0,0.9,0.7,1.6,1.5,1.6H14c0.8,0,1.5-0.7,1.5-1.6V12
			C15.5,11.1,14.8,10.4,14,10.4"/>
		<path class="st0" d="M34.1,32.1c-3.6,0-6.2-3.3-8.7-6.6c-2.4-3.1-4.7-6.1-7.8-6.4v-1.2c3.6,0.3,6.2,3.6,8.7,6.8
			c2.5,3.2,4.8,6.2,7.9,6.2c0.3,0,0.5,0.3,0.5,0.6C34.7,31.8,34.4,32.1,34.1,32.1 M15.5,32.1V20.7c0-0.9-0.7-1.6-1.5-1.6H9.9
			c-0.8,0-1.5,0.7-1.5,1.6v11.4H7.2V12c0-1.5,1.2-2.7,2.6-2.7H14c1.4,0,2.6,1.2,2.6,2.7v20.1H15.5z M34.1,29.9
			c-2.6,0-4.8-2.8-7.1-5.8c-2.7-3.4-5.4-6.9-9.4-7.2V12c0-2.1-1.6-3.8-3.6-3.8H9.9c-2,0-3.6,1.7-3.6,3.8v20.1h0
			c-0.3,0-0.5,0.2-0.5,0.5c0,0.3,0.2,0.5,0.5,0.5h3.1c0.3,0,0.5-0.2,0.5-0.5c0-0.3-0.2-0.5-0.5-0.5h0V20.7c0-0.3,0.2-0.6,0.5-0.6H14
			c0.3,0,0.5,0.3,0.5,0.6v11.4h0c-0.3,0-0.5,0.2-0.5,0.5c0,0.3,0.2,0.5,0.5,0.5h3.1c0.3,0,0.5-0.2,0.5-0.5c0-0.3-0.2-0.5-0.5-0.5h0
			v-12c1.3,0.2,2.5,0.9,3.7,2v9.9h-0.5c-0.3,0-0.5,0.2-0.5,0.5c0,0.3,0.2,0.5,0.5,0.5h2.1c0.3,0,0.5-0.2,0.5-0.5
			c0-0.3-0.2-0.5-0.5-0.5h-0.5v-8.9c0.8,0.9,1.6,1.9,2.4,3c0.6,0.7,1.2,1.5,1.8,2.2v3.7h-0.5c-0.3,0-0.5,0.2-0.5,0.5
			c0,0.3,0.2,0.5,0.5,0.5h2.1c0.3,0,0.5-0.2,0.5-0.5c0-0.3-0.2-0.5-0.5-0.5h-0.5v-2.6c1.9,2.1,4,3.6,6.7,3.6c0.8,0,1.5-0.7,1.5-1.6
			C35.7,30.6,35,29.9,34.1,29.9"/>
		<path class="st1" d="M34.9,39.4H5.4c-2.2,0-4.1-1.8-4.1-4.1V5.8c0-2.2,1.8-4.1,4.1-4.1h29.5c2.2,0,4.1,1.8,4.1,4.1v29.5
			C39,37.6,37.2,39.4,34.9,39.4z"/>
	</g>
</g>
</svg>
