<?xml version="1.0" encoding="utf-8"?>
<!-- Generator: Adobe Illustrator 19.0.0, SVG Export Plug-In . SVG Version: 6.00 Build 0)  -->
<svg version="1.1" id="Layer_1" xmlns="http://www.w3.org/2000/svg" xmlns:xlink="http://www.w3.org/1999/xlink" x="0px" y="0px"
	 viewBox="0 0 40.9 40.6" style="enable-background:new 0 0 40.9 40.6;" xml:space="preserve">
<style type="text/css">
	.st0{fill:#6EAD3B;}
	.st1{fill:none;stroke:#6EAD3B;stroke-width:2;stroke-miterlimit:10;}
	.st2{fill:#6EAD3B;}
	.st3{fill:none;stroke:#6EAD3B;stroke-width:2;stroke-miterlimit:10;}
</style>
<g id="XMLID_3_">
	<path id="XMLID_167_" class="st0" d="M-89.2,22c0.2,0,0.4-0.1,0.5-0.2c1.3-1.1,3-1.7,4.7-1.7c0.5,0,0.9-0.4,0.9-0.9
		c0-0.5-0.4-0.9-0.9-0.9c-2.1,0-4.2,0.7-5.8,2.1c-0.4,0.3-0.4,0.8-0.1,1.2C-89.7,21.9-89.5,22-89.2,22"/>
	<path id="XMLID_166_" class="st0" d="M-80.8,18.9c-0.5-0.2-0.9,0.1-1.1,0.5c-0.2,0.5,0.1,0.9,0.5,1.1c3,1.1,5,3.9,5,7.1
		c0,4.1-3.4,7.5-7.5,7.5c-4.1,0-7.5-3.4-7.5-7.5c0-1.5,0.4-2.9,1.2-4.1c0.3-0.4,0.2-0.9-0.2-1.2c-0.4-0.3-0.9-0.2-1.2,0.2
		c-1,1.5-1.5,3.3-1.5,5.1c0,5.1,4.1,9.2,9.2,9.2c5.1,0,9.2-4.1,9.2-9.2C-74.7,23.7-77.2,20.2-80.8,18.9"/>
	<path id="XMLID_165_" class="st0" d="M-63.6,27c0.4-0.3,0.5-0.8,0.2-1.2c-0.3-0.4-0.8-0.5-1.2-0.2c-2.6,1.7-6.1,1.6-8.6-0.3
		c-3.3-2.5-4-7.2-1.5-10.5c2.5-3.3,7.2-4,10.5-1.5c1.2,0.9,2.1,2.1,2.6,3.4c0.2,0.5,0.7,0.7,1.1,0.5c0.5-0.2,0.7-0.7,0.5-1.1
		c-0.6-1.7-1.7-3.2-3.1-4.2c-4.1-3.1-9.9-2.2-12.9,1.8c-3.1,4.1-2.2,9.9,1.8,12.9C-71.2,29-66.9,29.1-63.6,27"/>
	<path id="XMLID_164_" class="st0" d="M-59.2,18.6c0.3-1.2,0.6-2.5,0.9-3.7c0.3-1.1-1.5-1.6-1.8-0.5c-0.3,1.2-0.6,2.5-0.9,3.7
		C-61.3,19.3-59.5,19.7-59.2,18.6"/>
	<path id="XMLID_163_" class="st0" d="M-59.7,17.6c-1.1-0.5-2.2-1.4-3.2-2.1c-1-0.6-1.9,0.9-0.9,1.6c1,0.7,2.1,1.6,3.2,2.1
		C-59.5,19.7-58.6,18.1-59.7,17.6"/>
	<path id="XMLID_151_" class="st0" d="M-74,21.9c0-2.3,3-2.6,3-3.9c0-0.6-0.4-0.9-1-0.9c-0.5,0-0.9,0.3-1.1,0.7l-0.9-0.6
		c0.4-0.7,1.1-1.3,2.1-1.3c1.1,0,2.1,0.7,2.1,1.9c0,2-2.8,2.4-2.9,3.6h3v1h-4.2C-74,22.2-74,22.1-74,21.9"/>
	<path id="XMLID_6_" class="st0" d="M-66,19.8v-2c0-0.3,0-0.7,0-0.7h0c0,0-0.1,0.3-0.3,0.6l-1.5,2v0H-66z M-69,20.1l2.7-4h1.4v3.7
		h0.8v1h-0.8v1.6H-66v-1.6h-3V20.1z"/>
	<path id="XMLID_5_" class="st0" d="M-84.9,31.1c-0.2,0.2-0.5,0.3-0.8,0.3c-0.3,0-0.6-0.1-0.8-0.3l-2.6-2.6c-0.5-0.5-0.5-1.2,0-1.7
		c0.5-0.5,1.2-0.5,1.7,0l1.5,1.5c0.1,0.1,0.3,0.1,0.4,0l4.2-4.2c0.5-0.5,1.2-0.5,1.7,0c0.5,0.5,0.5,1.2,0,1.7L-84.9,31.1z"/>
	<path id="XMLID_4_" class="st1" d="M-61.4,42.8h-29.5c-2.2,0-4.1-1.8-4.1-4.1V9.2c0-2.2,1.8-4.1,4.1-4.1h29.5
		c2.2,0,4.1,1.8,4.1,4.1v29.5C-57.3,41-59.2,42.8-61.4,42.8z"/>
</g>
<polygon id="XMLID_168_" class="st2" points="19.3,26.6 20.6,26.6 20.6,32.6 23.7,32.6 23.7,33.7 19.3,33.7 "/>
<polygon id="XMLID_162_" class="st2" points="24.7,26.6 28.9,26.6 28.9,27.7 26,27.7 26,29.6 28.4,29.6 28.4,30.7 26,30.7 26,32.6 
	29.1,32.6 29.1,33.7 24.7,33.7 "/>
<g id="XMLID_152_">
	<path id="XMLID_159_" class="st2" d="M32.7,32.6c1.4,0,2.4-0.8,2.4-2.4c0-1.6-0.9-2.4-2.4-2.4h-1.1v4.9H32.7z M30.4,26.6h2.4
		c2.2,0,3.6,1.3,3.6,3.5s-1.4,3.6-3.6,3.6h-2.4V26.6z"/>
	<path id="XMLID_156_" class="st2" d="M24.5,8.2c0.4-0.4,1.1-0.4,1.5,0c0.4,0.4,0.4,1.1,0,1.5L13.4,22.4l-1.5-1.5L24.5,8.2z
		 M30.2,10c-0.3-0.3-0.6-0.5-0.9-0.6C29.2,10,29,10.5,28.7,11c0.1,0.1,0.2,0.1,0.3,0.2c0.4,0.4,0.4,1.1,0,1.5L16.4,25.4l-0.9-0.9v0
		l-0.9-0.9l12.7-12.7c1.1-1.1,1.1-2.8,0-3.9c-1-1-2.8-1-3.9,0L10.1,20.3c-0.3,0.3-0.3,0.8,0,1.2l2.7,2.7l2.3,2.3c0,0,0,0,0,0
		l0.7,0.7c0.2,0.2,0.4,0.2,0.6,0.2s0.4-0.1,0.6-0.2l13.3-13.3C31.3,12.8,31.3,11.1,30.2,10"/>
	<path id="XMLID_155_" class="st2" d="M9.1,22.2c-0.3-0.3-0.7-0.3-1,0l-0.9,0.9c-0.1,0.1-0.1,0.2-0.2,0.3l-0.9,3.4
		c-0.1,0.2,0,0.5,0.2,0.6l0.4,0.4l-0.3,0.3c-0.6,0.6-0.6,1.7,0,2.3c0.6,0.6,1.7,0.6,2.3,0l0.3-0.3l0.4,0.4c0.2,0.2,0.4,0.2,0.7,0.2
		l3.4-0.9c0.1,0,0.2-0.1,0.3-0.2l0.9-0.9c0.3-0.3,0.3-0.7,0-1L9.1,22.2z"/>
	<path id="XMLID_154_" class="st2" d="M15.2,3.4c0.1,0.8,3.2,11.2-3.1,11.6l0.5,4.4l-2.2,0.3c0,0,0.1-7.7,2.1-10.2
		c-0.1-0.1-3.2,1.3-2.7,5.7C9.9,15.3,2.7,8,15.2,3.4"/>
	<path id="XMLID_153_" class="st3" d="M35.6,39.1H6.1c-2.2,0-4.1-1.8-4.1-4.1V5.5c0-2.2,1.8-4.1,4.1-4.1h29.5c2.2,0,4.1,1.8,4.1,4.1
		v29.5C39.7,37.3,37.8,39.1,35.6,39.1z"/>
</g>
</svg>
