<?xml version="1.0" encoding="utf-8"?>
<!-- Generator: Adobe Illustrator 19.0.0, SVG Export Plug-In . SVG Version: 6.00 Build 0)  -->
<svg version="1.1" id="Layer_1" xmlns="http://www.w3.org/2000/svg" xmlns:xlink="http://www.w3.org/1999/xlink" x="0px" y="0px"
	 viewBox="0 0 40.9 40.6" style="enable-background:new 0 0 40.9 40.6;" xml:space="preserve">
<style type="text/css">
	.st0{fill:#6EAD3B;}
	.st1{fill:none;stroke:#6EAD3B;stroke-width:2;stroke-miterlimit:10;}
</style>
<g id="XMLID_3_">
	<path id="XMLID_167_" class="st0" d="M7.4,18.4c0.2,0,0.4-0.1,0.5-0.2c1.3-1.1,3-1.7,4.7-1.7c0.5,0,0.9-0.4,0.9-0.9
		c0-0.5-0.4-0.9-0.9-0.9c-2.1,0-4.2,0.7-5.8,2.1c-0.4,0.3-0.4,0.9-0.1,1.2C6.9,18.3,7.1,18.4,7.4,18.4"/>
	<path id="XMLID_166_" class="st0" d="M15.8,15.3c-0.5-0.2-0.9,0.1-1.1,0.5c-0.2,0.5,0.1,0.9,0.5,1.1c3,1.1,5,3.9,5,7.1
		c0,4.1-3.4,7.5-7.5,7.5c-4.1,0-7.5-3.4-7.5-7.5c0-1.5,0.4-2.9,1.2-4.1c0.3-0.4,0.2-0.9-0.2-1.2c-0.4-0.3-0.9-0.2-1.2,0.2
		c-1,1.5-1.5,3.3-1.5,5.1c0,5.1,4.1,9.2,9.2,9.2c5.1,0,9.2-4.1,9.2-9.2C21.9,20.1,19.4,16.6,15.8,15.3"/>
	<path id="XMLID_165_" class="st0" d="M33,23.3c0.4-0.3,0.5-0.8,0.2-1.2c-0.3-0.4-0.8-0.5-1.2-0.2c-2.6,1.7-6.1,1.6-8.6-0.3
		c-3.3-2.5-4-7.2-1.5-10.5c2.5-3.3,7.2-4,10.5-1.5c1.2,0.9,2.1,2.1,2.6,3.4c0.2,0.5,0.7,0.7,1.1,0.5c0.5-0.2,0.7-0.7,0.5-1.1
		c-0.6-1.7-1.7-3.2-3.1-4.2c-4.1-3.1-9.9-2.2-12.9,1.8c-3.1,4.1-2.2,9.9,1.8,12.9C25.5,25.4,29.7,25.5,33,23.3"/>
	<path id="XMLID_164_" class="st0" d="M37.4,15c0.3-1.2,0.6-2.5,0.9-3.7c0.3-1.1-1.5-1.6-1.8-0.5c-0.3,1.2-0.6,2.5-0.9,3.7
		C35.4,15.6,37.1,16.1,37.4,15"/>
	<path id="XMLID_163_" class="st0" d="M36.9,14c-1.1-0.5-2.2-1.4-3.2-2.1c-1-0.6-1.9,0.9-0.9,1.6c1,0.7,2.1,1.6,3.2,2.1
		C37.1,16,38,14.5,36.9,14"/>
	<path id="XMLID_151_" class="st0" d="M22.6,18.3c0-2.3,3-2.6,3-3.9c0-0.6-0.4-0.9-1-0.9c-0.5,0-0.9,0.3-1.1,0.7l-0.9-0.6
		c0.4-0.7,1.1-1.3,2.1-1.3c1.1,0,2.1,0.7,2.1,1.9c0,2-2.8,2.4-2.9,3.6h3v1h-4.2C22.6,18.6,22.6,18.4,22.6,18.3"/>
	<path id="XMLID_6_" class="st0" d="M30.6,16.2v-2c0-0.3,0-0.7,0-0.7h0c0,0-0.1,0.3-0.3,0.6l-1.5,2v0H30.6z M27.6,16.5l2.7-4h1.4
		v3.7h0.8v1h-0.8v1.6h-1.1v-1.6h-3V16.5z"/>
	<path id="XMLID_5_" class="st0" d="M11.7,27.4c-0.2,0.2-0.5,0.3-0.8,0.3s-0.6-0.1-0.8-0.3l-2.6-2.6c-0.5-0.5-0.5-1.2,0-1.7
		c0.5-0.5,1.2-0.5,1.7,0l1.5,1.5c0.1,0.1,0.3,0.1,0.4,0l4.2-4.2c0.5-0.5,1.2-0.5,1.7,0c0.5,0.5,0.5,1.2,0,1.7L11.7,27.4z"/>
	<path id="XMLID_4_" class="st1" d="M35.2,39.2H5.7c-2.2,0-4.1-1.8-4.1-4.1V5.6c0-2.2,1.8-4.1,4.1-4.1h29.5c2.2,0,4.1,1.8,4.1,4.1
		v29.5C39.3,37.4,37.4,39.2,35.2,39.2z"/>
</g>
</svg>
