<?xml version="1.0" encoding="utf-8"?>
<!-- Generator: Adobe Illustrator 19.0.0, SVG Export Plug-In . SVG Version: 6.00 Build 0)  -->
<svg version="1.1" id="Layer_1" xmlns="http://www.w3.org/2000/svg" xmlns:xlink="http://www.w3.org/1999/xlink" x="0px" y="0px"
	 viewBox="0 0 40.9 40.6" style="enable-background:new 0 0 40.9 40.6;" xml:space="preserve">
<style type="text/css">
	.st0{clip-path:url(#XMLID_170_);fill:#6EAD3B;}
	.st1{fill:none;stroke:#6EAD3B;stroke-linecap:round;stroke-linejoin:round;stroke-miterlimit:10;}
	.st2{fill:none;stroke:#6EAD3B;stroke-miterlimit:10;}
	.st3{fill:none;stroke:#6EAD3B;stroke-width:2;stroke-miterlimit:10;}
</style>
<g id="XMLID_3_">
	<g id="XMLID_152_">
		<defs>
			<rect id="XMLID_153_" x="0.6" y="0.5" width="39.7" height="39.7"/>
		</defs>
		<clipPath id="XMLID_170_">
			<use xlink:href="#XMLID_153_"  style="overflow:visible;"/>
		</clipPath>
		<path id="XMLID_167_" class="st0" d="M32.8,11.8c0.8,0,1.3-0.5,1.3-1.4c0-0.8-0.5-1.3-1.3-1.3h-1.4v2.7H32.8z M30,7.8h3.1
			c1.5,0,2.5,1,2.5,2.6s-1,2.6-2.5,2.6h-1.6v2.8H30V7.8z"/>
		<path id="XMLID_156_" class="st0" d="M26.6,32.4c-2.6,0-4.8-2.1-4.8-4.8c0-1.7,0.9-3.1,2.2-4l1.5,2.9c0.1,0.2,0.3,0.3,0.4,0.3
			c0.1,0,0.1,0,0.2-0.1c0.2-0.1,0.3-0.4,0.2-0.6l-1.5-2.9c0.5-0.2,1.1-0.3,1.7-0.3c2.6,0,4.8,2.1,4.8,4.8
			C31.4,30.3,29.3,32.4,26.6,32.4 M18.4,25.6c-0.2-0.1-0.5-0.1-0.8-0.1c-0.1,0-0.2,0-0.3,0l-0.3,0l-2.6-5.1h7.3L18.4,25.6z
			 M17.8,28.9l0.3-1.1c0.1-0.3-0.1-0.5-0.3-0.6c-0.3-0.1-0.5,0.1-0.6,0.3l-0.3,1.1c-0.3-0.2-0.4-0.6-0.4-0.9c0-0.7,0.6-1.2,1.2-1.2
			c0.7,0,1.2,0.6,1.2,1.2C18.9,28.3,18.4,28.9,17.8,28.9 M14.1,25.7c-0.4-1-1-1.9-1.9-2.5l1.5-2.3l2.4,4.7L14.1,25.7z M15.8,28.8
			l-1.4-0.1c0.1-0.3,0.1-0.7,0.1-1c0-0.4,0-0.7-0.1-1l1.4-0.1c-0.2,0.3-0.3,0.7-0.3,1.1C15.4,28.1,15.6,28.5,15.8,28.8 M13.4,28.7
			l-3.2-0.2c0.1-0.2,0.2-0.5,0.2-0.8s-0.1-0.5-0.2-0.8l3.2-0.2c0.1,0.3,0.1,0.6,0.1,1C13.5,28,13.4,28.3,13.4,28.7 M9.4,27.7
			c0,0.4-0.3,0.7-0.7,0.7c-0.4,0-0.7-0.3-0.7-0.7C8,27.3,8.3,27,8.7,27C9.1,27,9.4,27.3,9.4,27.7 M8.7,32.4c-2.6,0-4.8-2.1-4.8-4.8
			c0-2.6,2.1-4.8,4.8-4.8c0.8,0,1.5,0.2,2.2,0.5L9.2,26l-0.5,0c-0.9,0-1.6,0.7-1.6,1.6c0,0.9,0.7,1.6,1.6,1.6l4.4,0.3
			C12.3,31.3,10.6,32.4,8.7,32.4 M11.7,24c0.6,0.5,1.1,1.1,1.4,1.8l-2.7,0.2L11.7,24z M26.6,22c-0.8,0-1.5,0.2-2.2,0.4l-2.4-4.6h2.7
			c0.3,0,0.6,0.3,0.6,0.6c0,0.3-0.3,0.6-0.6,0.6h-0.6c-0.3,0-0.5,0.2-0.5,0.5c0,0.3,0.2,0.5,0.5,0.5h0.6c0.8,0,1.5-0.7,1.5-1.5
			c0-0.8-0.7-1.5-1.5-1.5h-3.5c-0.2,0-0.3,0.1-0.4,0.2c-0.1,0.1-0.1,0.3,0,0.5l1,1.9H14l-0.8-1.6h1.3c0.3,0,0.5-0.2,0.5-0.5
			c0-0.3-0.2-0.5-0.5-0.5H11c-0.3,0-0.5,0.2-0.5,0.5c0,0.3,0.2,0.5,0.5,0.5h1.1l1.1,2.1l-1.8,2.7C10.6,22.2,9.7,22,8.7,22
			C5.6,22,3,24.5,3,27.7c0,3.1,2.6,5.7,5.7,5.7c2.5,0,4.6-1.6,5.4-3.7l2.4,0.2l-0.1,0.4c-0.1,0.3,0.1,0.5,0.3,0.6c0,0,0.1,0,0.1,0
			c0.2,0,0.4-0.1,0.5-0.3l0.2-0.7c0.1,0,0.1,0,0.2,0c1.2,0,2.2-1,2.2-2.2c0-0.6-0.2-1.1-0.6-1.5l3.4-5.2l1,1.9
			c-1.6,1-2.7,2.8-2.7,4.8c0,3.1,2.6,5.7,5.7,5.7s5.7-2.6,5.7-5.7C32.3,24.5,29.8,22,26.6,22"/>
		<path id="XMLID_155_" class="st0" d="M27.1,27.5C27.1,27.5,27.1,27.5,27.1,27.5"/>
		<path id="XMLID_154_" class="st0" d="M26.2,27.5c-0.1,0.2,0,0.4,0.2,0.5c0.2,0.1,0.4,0.1,0.5,0c0.2-0.1,0.3-0.4,0.2-0.6
			C26.9,27.1,26.3,27.1,26.2,27.5"/>
	</g>
	<polyline id="XMLID_151_" class="st1" points="0.6,32.9 8.1,32.9 8.1,17.6 	"/>
	<g id="XMLID_4_">
		<path id="XMLID_6_" class="st2" d="M24.6,33.2c-0.3-1.5,0.5-3,1.3-4.3c0.8-1.2,1.7-2.3,2.8-3.1c1.2-0.8,2.6-1.3,4-1.1 M37.7,12
			c0,3.2-2.6,5.8-5.7,5.8s-5.7-2.6-5.7-5.8s2.6-5.8,5.7-5.8S37.7,8.8,37.7,12z"/>
		<path id="XMLID_5_" class="st3" d="M35.2,39.1H5.7c-2.2,0-4.1-1.8-4.1-4.1V5.5c0-2.2,1.8-4.1,4.1-4.1h29.5c2.2,0,4.1,1.8,4.1,4.1
			v29.5C39.3,37.3,37.4,39.1,35.2,39.1z"/>
	</g>
</g>
</svg>
