<?xml version="1.0" encoding="utf-8"?>
<!-- Generator: Adobe Illustrator 19.0.0, SVG Export Plug-In . SVG Version: 6.00 Build 0)  -->
<svg version="1.1" id="Layer_1" xmlns="http://www.w3.org/2000/svg" xmlns:xlink="http://www.w3.org/1999/xlink" x="0px" y="0px"
	 viewBox="0 0 40.9 40.6" style="enable-background:new 0 0 40.9 40.6;" xml:space="preserve">
<style type="text/css">
	.st0{fill:#6EAD3B;}
	.st1{fill:none;stroke:#6EAD3B;stroke-width:2;stroke-miterlimit:10;}
</style>
<g id="XMLID_152_">
	<path id="XMLID_159_" class="st0" d="M29.5,17.9c-0.1,0.2-0.2,0.4-0.1,0.5l0.3,2.7l-2.5,1c-0.2,0.1-0.3,0.2-0.4,0.4l-1,2.5
		l-2.7-0.3c-0.2,0-0.4,0-0.5,0.1l-2.1,1.6l-2.1-1.6c-0.1-0.1-0.3-0.2-0.5-0.2c0,0-0.1,0-0.1,0L15.1,25l-1-2.5
		c-0.1-0.2-0.2-0.3-0.4-0.4l-2.5-1l0.3-2.7c0-0.2,0-0.4-0.1-0.5l-1.6-2.1l1.6-2.1c0.1-0.2,0.2-0.4,0.1-0.5l-0.3-2.7l2.5-1
		C13.9,9.3,14,9.2,14.1,9l1-2.5l2.7,0.3c0.2,0,0.4,0,0.6-0.1l2.1-1.6l2.1,1.6c0.2,0.1,0.4,0.2,0.5,0.1l2.7-0.3l1,2.5
		c0.1,0.2,0.2,0.3,0.4,0.4l2.5,1l-0.3,2.7c0,0.2,0,0.4,0.1,0.5l1.6,2.1L29.5,17.9z M20.8,32.5c-0.2-0.2-0.6-0.2-0.8,0l-4,2.6v-8.7
		l1.7-0.2L20,28c0.1,0.1,0.3,0.2,0.5,0.2s0.3-0.1,0.5-0.2l2.3-1.8l1.7,0.2v8.7L20.8,32.5z M32.6,15.3L30.9,13l0.4-2.9
		c0-0.3-0.1-0.7-0.5-0.8l-2.7-1.1l-1.1-2.7c-0.1-0.3-0.5-0.5-0.8-0.5l-2.9,0.4l-2.3-1.8c-0.3-0.2-0.6-0.2-0.9,0l-2.3,1.8L14.7,5
		c-0.3,0-0.7,0.1-0.8,0.5l-1.1,2.7l-2.7,1.1C9.8,9.4,9.6,9.7,9.6,10L10,13l-1.8,2.3c-0.2,0.3-0.2,0.6,0,0.9l1.8,2.3l-0.4,2.9
		c0,0.3,0.1,0.7,0.5,0.8l2.7,1.1l1.1,2.7c0.1,0.2,0.3,0.4,0.6,0.4v9.9c0,0.3,0.1,0.5,0.4,0.7c0.2,0.1,0.5,0.1,0.8,0l4.8-3l4.8,3
		c0.1,0.1,0.3,0.1,0.4,0.1c0.1,0,0.2,0,0.4-0.1c0.2-0.1,0.4-0.4,0.4-0.7v-9.9c0.2,0,0.5-0.2,0.6-0.4l1.1-2.7l2.7-1.1
		c0.3-0.1,0.5-0.5,0.5-0.8l-0.4-2.9l1.8-2.3C32.9,15.9,32.9,15.6,32.6,15.3"/>
	<path id="XMLID_158_" class="st0" d="M15.9,10.9c0.2,0,0.3-0.1,0.5-0.2c1.1-0.9,2.6-1.5,4.1-1.5c0.4,0,0.7-0.3,0.7-0.7
		c0-0.4-0.3-0.7-0.7-0.7c-1.8,0-3.6,0.6-5,1.8c-0.3,0.3-0.4,0.7-0.1,1C15.5,10.9,15.7,10.9,15.9,10.9"/>
	<path id="XMLID_157_" class="st0" d="M23.1,8.3c-0.4-0.1-0.8,0.1-1,0.5c-0.1,0.4,0.1,0.8,0.5,1c2.6,0.9,4.3,3.3,4.3,6.1
		c0,3.5-2.9,6.4-6.4,6.4c-3.5,0-6.4-2.9-6.4-6.4c0-1.3,0.4-2.5,1.1-3.5c0.2-0.3,0.1-0.8-0.2-1c-0.3-0.2-0.8-0.1-1,0.2
		c-0.9,1.3-1.3,2.8-1.3,4.4c0,4.4,3.6,7.9,7.9,7.9c4.4,0,7.9-3.6,7.9-7.9C28.4,12.4,26.2,9.4,23.1,8.3"/>
	<polygon id="XMLID_156_" class="st0" points="16.4,12.8 19.5,12.8 19.5,13.7 17.3,13.7 17.3,15 19.1,15 19.1,15.9 17.3,15.9 
		17.3,17.3 19.7,17.3 19.7,18.1 16.4,18.1 	"/>
	<g id="XMLID_153_">
		<path id="XMLID_155_" class="st0" d="M20.5,12.8h1v3.4c0,0.7,0.5,1.1,1.2,1.1c0.7,0,1.2-0.4,1.2-1.1v-3.4h1v3.4c0,1.2-0.9,2-2.1,2
			c-1.3,0-2.1-0.8-2.1-2V12.8z"/>
		<path id="XMLID_154_" class="st1" d="M35.2,39.1H5.7c-2.2,0-4.1-1.8-4.1-4.1V5.5c0-2.2,1.8-4.1,4.1-4.1h29.5
			c2.2,0,4.1,1.8,4.1,4.1v29.5C39.3,37.3,37.4,39.1,35.2,39.1z"/>
	</g>
</g>
</svg>
